<?xml version="1.0" encoding="utf-8"?><svg viewBox="0 0 18 22" xmlns="http://www.w3.org/2000/svg" xmlns:xlink="http://www.w3.org/1999/xlink"><style>:root>svg{display:none}:root>svg:target{display:block}</style><svg fill="none" viewBox="0 0 17 22" id="arr-left" xmlns="http://www.w3.org/2000/svg"><path d="M1.436 9.463a2 2 0 000 3.31l12.44 8.45c1.328.901 3.124-.05 3.124-1.655v-16.9c0-1.606-1.796-2.557-3.124-1.655l-12.44 8.45z" fill="#000"/></svg><svg fill="none" viewBox="0 0 17 22" id="arr-left-white" xmlns="http://www.w3.org/2000/svg"><path d="M1.436 9.463a2 2 0 000 3.31l12.44 8.45c1.328.901 3.124-.05 3.124-1.655v-16.9c0-1.606-1.796-2.557-3.124-1.655l-12.44 8.45z" fill="#fff"/></svg><svg fill="none" viewBox="0 0 17 22" id="arr-right" xmlns="http://www.w3.org/2000/svg"><path d="M15.564 9.463a2 2 0 010 3.31l-12.44 8.45C1.796 22.123 0 21.172 0 19.567v-16.9C0 1.062 1.796.11 3.124 1.013l12.44 8.45z" fill="#000"/></svg><svg fill="none" viewBox="0 0 17 22" id="arr-right-white" xmlns="http://www.w3.org/2000/svg"><path d="M15.564 9.463a2 2 0 010 3.31l-12.44 8.45C1.796 22.123 0 21.172 0 19.567v-16.9C0 1.062 1.796.11 3.124 1.013l12.44 8.45z" fill="#fff"/></svg><svg fill="none" viewBox="0 0 18 18" id="icon-cart" xmlns="http://www.w3.org/2000/svg"><path d="M18 4.469L3.447 2.795 2.489.936.191.75 0 1.494l1.532.558 2.49 8.925.957 3.533h11.68l.192-1.115H5.553l-.574-2.418 12.447-1.86L18 4.47zM7.468 15.998c0 .616-.514 1.116-1.149 1.116-.634 0-1.149-.5-1.149-1.116 0-.616.515-1.116 1.15-1.116.634 0 1.148.5 1.148 1.116zM15.51 15.998c0 .616-.514 1.116-1.148 1.116-.635 0-1.15-.5-1.15-1.116 0-.616.515-1.116 1.15-1.116.634 0 1.149.5 1.149 1.116z" fill="#000"/></svg></svg>